<svg viewBox="0 0 80 90" fill="none" width="100%" height="100%">
<path classname="element17" d="M46.9833 30.3822C46.9831 30.8241 47.1127 31.2572 47.3573 31.6317C47.6019 32.0063 47.9516 32.3072 48.3663 32.4999L47.1956 29.4241C47.0552 29.7256 46.9829 30.0521 46.9833 30.3822ZM49.4802 30.588L48.7438 32.6394C49.2381 32.7789 49.7656 32.7657 50.2517 32.6018C50.2451 32.5914 50.2392 32.5805 50.234 32.5694L49.4802 30.588ZM51.0936 30.2633C51.0901 30.0332 51.0201 29.8086 50.8913 29.6145C50.7593 29.4554 50.6759 29.2645 50.6501 29.0627C50.6472 28.9549 50.6889 28.8504 50.7662 28.7721C50.8435 28.6938 50.9499 28.648 51.0623 28.6448C51.0731 28.6452 51.0836 28.646 51.0938 28.6471C50.8319 28.4169 50.521 28.2441 50.1825 28.1405C49.844 28.0369 49.4862 28.0051 49.1336 28.0472C48.781 28.0893 48.4422 28.2043 48.1406 28.3843C47.839 28.5644 47.5817 28.8051 47.3867 29.0898C47.4444 29.0915 47.4986 29.0927 47.5448 29.0927C47.8013 29.0927 48.1985 29.0627 48.1985 29.0627C48.2245 29.062 48.2499 29.071 48.2692 29.0877C48.2886 29.1044 48.3006 29.1276 48.3026 29.1525C48.3046 29.1774 48.2966 29.2021 48.2802 29.2215C48.2638 29.2409 48.2402 29.2535 48.2144 29.2567C48.2144 29.2567 48.0813 29.2714 47.9335 29.279L48.8271 31.8276L49.3642 30.2831L48.9817 29.279C48.8495 29.2714 48.7244 29.2564 48.7244 29.2564C48.6991 29.2527 48.6761 29.2399 48.6602 29.2207C48.6443 29.2014 48.6365 29.1771 48.6385 29.1526C48.6405 29.1281 48.652 29.1053 48.6709 29.0886C48.6897 29.0719 48.7144 29.0627 48.74 29.0627C48.74 29.0627 49.1452 29.0927 49.3863 29.0927C49.6428 29.0927 50.0403 29.0627 50.0403 29.0627C50.0536 29.0617 50.0669 29.0633 50.0796 29.0672C50.0923 29.0712 50.104 29.0775 50.1141 29.0858C50.1242 29.0942 50.1325 29.1043 50.1386 29.1157C50.1446 29.1271 50.1482 29.1395 50.1492 29.1522C50.1503 29.165 50.1487 29.1778 50.1445 29.1899C50.1404 29.2021 50.1338 29.2133 50.1251 29.223C50.1165 29.2327 50.1059 29.2407 50.094 29.2465C50.0821 29.2522 50.0692 29.2557 50.0559 29.2567C50.0559 29.2567 49.9228 29.2714 49.7753 29.279L50.6619 31.8084L50.9151 31.039C51.0141 30.7905 51.0741 30.5287 51.0936 30.2633ZM51.6068 29.4956C51.6023 29.7855 51.5389 30.0718 51.4201 30.3384L50.6707 32.4163C51.2235 32.108 51.6289 31.605 51.8006 31.0143C51.9724 30.4236 51.8969 29.792 51.5903 29.2539C51.6013 29.3341 51.6068 29.4146 51.6068 29.4956ZM49.437 27.5586C47.8107 27.5586 46.4924 28.8227 46.4924 30.3822C46.4924 31.9417 47.8107 33.2058 49.437 33.2058C51.0632 33.2058 52.3815 31.9417 52.3815 30.3822C52.3815 28.8227 51.0632 27.5586 49.437 27.5586ZM50.5144 32.828C50.0902 33 49.628 33.0678 49.1696 33.025C48.7112 32.9823 48.2712 32.8304 47.8896 32.5832C47.4445 32.2951 47.096 31.8895 46.8864 31.4154C46.707 31.0086 46.6364 30.5654 46.681 30.1258C46.7255 29.6863 46.8839 29.2644 47.1417 28.8984C47.4421 28.4716 47.8652 28.1376 48.3596 27.9367C48.7837 27.7646 49.2459 27.6968 49.7043 27.7395C50.1627 27.7822 50.6027 27.934 50.9843 28.1812C51.4294 28.4693 51.7779 28.8749 51.9875 29.349C52.1669 29.7558 52.2375 30.199 52.193 30.6386C52.1484 31.0781 51.99 31.5 51.7322 31.866C51.4318 32.2929 51.0088 32.627 50.5144 32.828Z" fill="black" opacity="0"/>
<path classname="element16" d="M67.2219 45.6716L65.0724 46.8151C64.9251 46.8885 64.7779 46.8885 64.6307 46.8151L62.5106 45.6716L66.3532 41.9585L66.4563 41.9303C66.5446 41.9303 66.5947 41.967 66.6035 42.0432L67.2219 45.6716ZM64.0859 42.015L62.7462 44.1468L63.3056 40.7726C63.3145 40.6964 63.3645 40.6597 63.4529 40.6597C63.5118 40.6597 63.55 40.6766 63.5707 40.7303L64.2037 41.8456L64.0859 42.015ZM65.411 42.3708L62.599 45.0786L64.7337 41.6056C64.7632 41.5491 64.8074 41.5237 64.8662 41.5237C64.9251 41.5237 64.9634 41.5491 64.984 41.6056L65.411 42.3708Z" fill="black" opacity="0"/>
<path classname="element15" d="M67.0364 60.6944C66.8351 60.6336 66.7312 60.6541 66.5201 60.6319C66.1938 60.5978 66.0638 60.4753 66.0086 60.1601C65.9778 59.9841 66.0142 59.7264 65.9354 59.5669C65.7847 59.2627 65.4322 59.1263 65.078 59.2041C64.7789 59.27 64.5301 59.557 64.5163 59.8517C64.5006 60.1882 64.7001 60.4753 65.0428 60.5744C65.2057 60.6215 65.3787 60.6452 65.5487 60.6572C65.8606 60.6791 65.8846 60.8456 65.9689 60.9827C66.0221 61.0691 66.0736 61.1542 66.0736 61.4119C66.0736 61.6696 66.0218 61.7546 65.9689 61.841C65.8846 61.9778 65.7805 62.0674 65.4686 62.0895C65.2986 62.1016 65.1252 62.1253 64.9628 62.1725C64.62 62.2718 64.4205 62.5586 64.4362 62.8951C64.45 63.1898 64.6988 63.4768 64.9979 63.5427C65.3521 63.6208 65.7046 63.4841 65.8553 63.1799C65.9344 63.0204 65.9778 62.8396 66.0086 62.6637C66.0641 62.3484 66.1941 62.2259 66.5201 62.1917C66.7312 62.1696 66.9496 62.1917 67.1474 62.0838C67.3564 61.9372 67.5432 61.7169 67.5432 61.4119C67.5432 61.1067 67.3419 60.7868 67.0364 60.6944ZM63.6884 62.1269C63.2771 62.1269 62.9415 61.8041 62.9415 61.4082C62.9415 61.0124 63.2771 60.6896 63.6884 60.6896C64.0997 60.6896 64.4352 61.0124 64.4352 61.4082C64.4352 61.8037 64.0994 62.1269 63.6884 62.1269H63.6884ZM62.3126 63.5875C61.9018 63.5865 61.5674 63.2624 61.5684 62.8662C61.5694 62.4707 61.9062 62.1488 62.3178 62.1501C62.7288 62.1511 63.0633 62.4752 63.0621 62.8713C63.0611 63.2665 62.7242 63.5884 62.3126 63.5875ZM67.8619 63.5875C67.4499 63.5896 67.1118 63.269 67.1094 62.8742C67.1071 62.4777 67.4403 62.1523 67.8506 62.1501C68.2626 62.1479 68.6008 62.4685 68.6031 62.8634C68.6054 63.2595 68.2722 63.5852 67.8619 63.5875Z" fill="black" opacity="0"/>
<path classname="element14" d="M15.0465 43.3855C15.012 43.3855 14.989 43.3899 14.9659 43.3954V43.3988H14.9694C14.9855 43.4274 15.012 43.4496 15.0326 43.4761C15.0487 43.506 15.0624 43.5367 15.0774 43.5665L15.082 43.5621C15.1096 43.5432 15.1235 43.5136 15.1235 43.4683C15.1121 43.4549 15.1096 43.4407 15.0995 43.4285C15.088 43.4096 15.0626 43.3999 15.0465 43.3855ZM11.9145 47.1111H11.642C11.6338 46.6952 11.6074 46.2797 11.5627 45.8659H11.5605L11.1453 47.1111H10.9371L10.5252 45.8659H10.5217C10.4897 46.2804 10.4705 46.6956 10.4643 47.1111H10.2158C10.2293 46.5889 10.2696 46.0677 10.3366 45.5493H10.6747L11.068 46.6965H11.0702L11.4671 45.5493H11.7891C11.8606 46.1186 11.9028 46.6392 11.9156 47.1111H11.9145ZM13.0969 45.9587C12.9865 46.5366 12.8392 46.957 12.6587 47.2183C12.5162 47.4202 12.3605 47.5213 12.1917 47.5215C12.1471 47.5215 12.0915 47.5083 12.0249 47.4817V47.3428C12.0583 47.3473 12.0963 47.3504 12.1389 47.3504C12.2182 47.3504 12.2816 47.3284 12.3299 47.2875C12.3873 47.2367 12.4161 47.1798 12.4163 47.1166C12.4163 47.0726 12.3944 46.9843 12.3485 46.8498L12.0506 45.9587H12.3187L12.5326 46.6249C12.581 46.7772 12.6018 46.882 12.5925 46.9426C12.7109 46.6425 12.7926 46.3138 12.8387 45.9587H13.0969ZM16.7268 47.1111H15.9517V45.5493H16.2127V46.9193H16.7268V47.1111ZM15.7492 47.1488L15.4502 47.0076C15.4767 46.9868 15.5016 46.9633 15.525 46.9371C15.6527 46.7948 15.7161 46.5819 15.7161 46.3018C15.7161 45.7846 15.5044 45.5262 15.0811 45.5265C14.8738 45.5262 14.712 45.5916 14.5957 45.7228C14.4692 45.8661 14.4047 46.0779 14.4047 46.357C14.4047 46.6317 14.461 46.8324 14.5739 46.9614C14.6774 47.0762 14.8327 47.1346 15.0409 47.1346C15.1182 47.1348 15.1892 47.1256 15.2538 47.1071L15.6438 47.3255L15.7507 47.149L15.7492 47.1488ZM14.7797 46.7979C14.713 46.6965 14.6808 46.5332 14.6808 46.3081C14.6806 45.9146 14.8052 45.718 15.0546 45.7181C15.1847 45.7181 15.2812 45.7656 15.3422 45.8594C15.4078 45.9619 15.4411 46.123 15.4411 46.3458C15.4411 46.7418 15.3157 46.9415 15.0672 46.9415C14.936 46.9415 14.8406 46.8941 14.7786 46.8003L14.7797 46.7979ZM14.2919 46.6789C14.2919 46.8113 14.2413 46.9205 14.1388 47.0042C14.0377 47.0891 13.903 47.1321 13.7316 47.1321C13.5717 47.1321 13.4187 47.0836 13.268 46.9864L13.3383 46.8519C13.467 46.9138 13.5832 46.9447 13.6892 46.9447C13.7872 46.9445 13.8639 46.9239 13.9193 46.8829C13.9745 46.8409 14.0079 46.7825 14.0079 46.7086C14.0079 46.6158 13.9401 46.5364 13.8168 46.4703C13.7029 46.4098 13.4741 46.285 13.4741 46.285C13.3498 46.198 13.2888 46.1052 13.2888 45.9519C13.2888 45.8253 13.3348 45.7234 13.4268 45.6463C13.52 45.5669 13.6384 45.5284 13.7857 45.5284C13.9322 45.5271 14.0759 45.5674 14.1987 45.6442L14.1355 45.7787C14.0369 45.7369 13.9304 45.7148 13.8226 45.7137C13.7387 45.7139 13.6742 45.7334 13.6293 45.7721C13.562 45.8301 13.5569 45.8592 13.5569 45.9199C13.5569 46.0127 13.626 46.0921 13.7523 46.1603C13.8685 46.2209 14.1019 46.349 14.1019 46.349C14.2296 46.435 14.293 46.5277 14.293 46.6787L14.2919 46.6789ZM17.0537 45.0256C16.896 45.0222 16.7741 45.0377 16.6718 45.0796C16.6431 45.0906 16.5959 45.0906 16.5912 45.126C16.6074 45.1415 16.6096 45.1658 16.6235 45.1866C16.6476 45.2241 16.688 45.2749 16.726 45.3013C16.7675 45.3323 16.8088 45.3632 16.8514 45.3897C16.9285 45.435 17.0148 45.4614 17.0906 45.5066C17.1332 45.533 17.1769 45.5671 17.2193 45.5949C17.2412 45.6093 17.2549 45.6347 17.2825 45.6434V45.6379C17.2686 45.6213 17.2652 45.597 17.2513 45.5773C17.2317 45.5584 17.2122 45.5419 17.1926 45.5233C17.135 45.4499 17.066 45.3856 16.9879 45.3325C16.9247 45.2916 16.7867 45.2342 16.7613 45.1648L16.7578 45.1603C16.8004 45.1569 16.8509 45.1415 16.8922 45.1305C16.9589 45.1139 17.021 45.1171 17.0901 45.1006C17.1218 45.0927 17.1533 45.0839 17.1844 45.0741V45.0576C17.1489 45.0235 17.1224 44.9771 17.0855 44.9452C16.9837 44.8601 16.8752 44.7827 16.7611 44.7135C16.699 44.6749 16.6208 44.6506 16.5552 44.6186C16.5323 44.6076 16.4921 44.6021 16.4793 44.5832C16.4437 44.5413 16.423 44.4873 16.3976 44.4375C16.3398 44.3299 16.2861 44.2202 16.2366 44.1089C16.201 44.035 16.1803 43.9621 16.1365 43.8937C15.934 43.5727 15.7132 43.3787 15.3751 43.1879C15.3026 43.1481 15.2152 43.1316 15.1231 43.1106C15.0736 43.1085 15.0253 43.1051 14.9758 43.103C14.9436 43.0896 14.9126 43.0545 14.885 43.0367C14.7724 42.9683 14.4824 42.8215 14.4007 43.0157C14.3477 43.1392 14.4789 43.2595 14.5251 43.3213C14.5584 43.3653 14.601 43.4141 14.6251 43.4625C14.639 43.4956 14.6423 43.5299 14.6562 43.564C14.6874 43.6468 14.7172 43.7393 14.7587 43.8166C14.7806 43.8564 14.8035 43.8982 14.8311 43.9335C14.8473 43.9545 14.8749 43.9634 14.8806 43.9975C14.853 44.036 14.8508 44.0924 14.8358 44.1387C14.7645 44.3526 14.7921 44.6163 14.8921 44.774C14.9243 44.8215 14.999 44.9252 15.0992 44.8854C15.1878 44.8513 15.1684 44.7442 15.1935 44.6493C15.1993 44.6262 15.1958 44.6118 15.2075 44.5964V44.6008C15.2362 44.6538 15.2638 44.7046 15.2892 44.7575C15.349 44.8503 15.4559 44.9462 15.5445 45.0102C15.5917 45.0443 15.6284 45.1029 15.6871 45.1237V45.1182H15.6825C15.6699 45.1017 15.6538 45.0938 15.6377 45.0807C15.6004 45.0453 15.5657 45.0073 15.5341 44.9672C15.4524 44.8613 15.3788 44.7444 15.3143 44.6241C15.2833 44.5647 15.2549 44.504 15.2293 44.4422C15.2178 44.4202 15.2178 44.3859 15.1982 44.3749C15.1684 44.4157 15.1246 44.4509 15.1039 44.5028C15.0659 44.5832 15.0624 44.6836 15.0476 44.7874C15.0407 44.7895 15.044 44.7874 15.0407 44.7918C14.9776 44.7764 14.9557 44.7145 14.9325 44.6616C14.8727 44.5271 14.8634 44.312 14.9142 44.1576C14.9281 44.1178 14.9866 43.9932 14.9637 43.9558C14.9511 43.9193 14.912 43.8984 14.8912 43.8698C14.8647 43.8344 14.8382 43.7893 14.8199 43.7495C14.7726 43.6436 14.7497 43.5267 14.698 43.4208C14.675 43.3723 14.6335 43.3215 14.6002 43.2764C14.5622 43.2256 14.5209 43.1894 14.4919 43.1296C14.4816 43.1087 14.4679 43.0746 14.484 43.0523C14.4875 43.0369 14.4955 43.0314 14.5116 43.0269C14.537 43.006 14.6105 43.0324 14.6359 43.0445C14.7084 43.072 14.7693 43.0985 14.8303 43.1383C14.8579 43.1572 14.8877 43.1923 14.9235 43.2023H14.965C15.0281 43.2156 15.0984 43.2057 15.1571 43.2232C15.2618 43.2552 15.3561 43.3016 15.4411 43.3522C15.7011 43.5122 15.9126 43.7352 16.0542 43.9985C16.0782 44.0415 16.0886 44.0813 16.1105 44.1264C16.1507 44.2203 16.2026 44.3139 16.2439 44.4032C16.2852 44.4926 16.3245 44.583 16.3841 44.6569C16.4139 44.6967 16.5314 44.7175 16.5853 44.7374C16.6244 44.755 16.6853 44.7704 16.7198 44.7903C16.7876 44.8302 16.8543 44.8753 16.9176 44.9193C16.9499 44.9403 17.0477 44.9877 17.0535 45.0252L17.0537 45.0256Z" fill="black" opacity="0"/>
<path classname="element13" d="M31.9494 74.9159C31.9523 74.9216 31.9523 74.93 31.9523 74.9385V76.1498C31.9523 76.1781 31.9347 76.212 31.9082 76.2261L30.8452 76.8134V77.9739C30.8452 78.0049 30.8305 78.0332 30.801 78.0501L28.5867 79.2727C28.5809 79.2756 28.575 79.284 28.5691 79.284H28.5043C28.5043 79.284 28.5043 79.2756 28.4925 79.2727L26.2782 78.0501C26.2648 78.042 26.2536 78.0308 26.2459 78.0174C26.2382 78.0041 26.2341 77.9891 26.2341 77.9739V74.3427C26.2341 74.3286 26.2341 74.3201 26.237 74.3145C26.237 74.3117 26.24 74.3088 26.24 74.306C26.24 74.3004 26.2429 74.2975 26.2458 74.2919C26.2458 74.2891 26.2488 74.2863 26.2517 74.2834L26.2606 74.275L26.2694 74.2665C26.2723 74.2637 26.2753 74.2608 26.2782 74.2608L27.3854 73.6481C27.4148 73.6368 27.4502 73.6368 27.4737 73.6481L28.5867 74.2608C28.5897 74.2637 28.5926 74.2637 28.5956 74.2665L28.6044 74.275L28.6132 74.2834C28.6162 74.2863 28.6191 74.2891 28.6191 74.2919C28.6221 74.2975 28.625 74.3004 28.625 74.306C28.625 74.3088 28.628 74.3117 28.628 74.3145C28.6309 74.323 28.6309 74.3286 28.6309 74.3427V76.6016L29.5555 76.099V74.9385C29.5555 74.93 29.5555 74.9216 29.5584 74.9159L29.5614 74.9074C29.5614 74.9074 29.5643 74.899 29.5673 74.8933C29.5673 74.8905 29.5702 74.8877 29.5732 74.8849L29.582 74.8764L29.5908 74.8679C29.5938 74.8651 29.5967 74.8623 29.5997 74.8623L30.7127 74.2495C30.7363 74.2326 30.7716 74.2326 30.801 74.2495L31.9082 74.8623C31.9111 74.8623 31.9141 74.8651 31.917 74.8679L31.9258 74.8764L31.9347 74.8849C31.9376 74.8877 31.9376 74.8905 31.9406 74.8933C31.9435 74.899 31.9435 74.9074 31.9465 74.9074C31.9494 74.9074 31.9494 74.9074 31.9494 74.9159ZM31.7698 76.099V75.091L30.8452 75.5992V76.6016L31.7698 76.099ZM30.6626 77.9231V76.9122L28.6309 78.0247V79.044L30.6626 77.9231ZM26.4166 74.4839V77.9231L28.4484 79.044V78.0247L27.3883 77.4487H27.3854C27.3824 77.4487 27.3795 77.4487 27.3765 77.4402C27.3736 77.4402 27.3707 77.4374 27.3677 77.4346L27.3589 77.4261C27.3559 77.4233 27.3559 77.4205 27.353 77.4176C27.35 77.412 27.35 77.4092 27.3471 77.4063C27.3471 77.4007 27.3442 77.3979 27.3442 77.395C27.3412 77.3922 27.3412 77.3866 27.3412 77.3837V74.9978L26.4166 74.4839ZM27.4325 73.8288L26.5109 74.3427L27.4325 74.8453L28.3571 74.3427L27.4325 73.8288ZM28.4484 76.7089V74.4839L27.5238 74.9978V77.22L28.4484 76.7089ZM30.7539 74.4274L29.8293 74.9385L30.7539 75.4468L31.6756 74.9385L30.7539 74.4274ZM30.6626 75.5992L29.7381 75.091V76.099L30.6626 76.6016V75.5992ZM28.5396 77.8722L30.5655 76.7597L29.6468 76.2515L27.6209 77.3725L28.5396 77.8722Z" fill="black" opacity="0"/>
<path classname="element12" d="M15.3104 58C15.0704 58.0022 14.8317 58.0362 14.6005 58.1009L14.5841 58.1058C14.4386 58.0809 14.2913 58.0671 14.1437 58.0646C13.8401 58.0595 13.5791 58.1309 13.3691 58.2501C13.1619 58.1803 12.732 58.06 12.279 58.084C11.9635 58.1006 11.6193 58.1936 11.3643 58.4549C11.1098 58.7162 10.9754 59.1204 11.0037 59.6705C11.0114 59.8224 11.0558 60.0697 11.13 60.3905C11.2036 60.7109 11.3078 61.0859 11.4374 61.4282C11.5669 61.7705 11.709 62.0784 11.931 62.2873C12.0417 62.392 12.1942 62.4801 12.3739 62.4728C12.5002 62.4678 12.6145 62.4141 12.7129 62.3348C12.7609 62.3961 12.8122 62.4228 12.8588 62.4477C12.9175 62.4788 12.9748 62.5 13.0339 62.5142C13.1978 62.5562 13.3685 62.5647 13.5358 62.539C13.6086 62.5273 13.6852 62.5044 13.7616 62.4717C13.7643 62.554 13.7676 62.6348 13.7711 62.7166C13.7815 62.9757 13.7883 63.2149 13.8685 63.4246C13.8813 63.4589 13.9165 63.6354 14.0559 63.7911C14.195 63.9471 14.4677 64.0442 14.7781 63.9799C14.9971 63.9343 15.2758 63.8522 15.4607 63.5969C15.6434 63.3444 15.7261 62.9822 15.7424 62.3945C15.7465 62.3628 15.7514 62.3358 15.7566 62.3105L15.8002 62.3143H15.8052C16.0389 62.3247 16.2925 62.2925 16.5044 62.197C16.6921 62.1125 16.8339 62.0274 16.9373 61.876C16.9632 61.8387 16.9915 61.7934 16.9992 61.7151C17.0068 61.6374 16.961 61.5152 16.8844 61.459C16.7308 61.3461 16.6345 61.3889 16.5312 61.4099C16.4293 61.4317 16.3261 61.4438 16.2213 61.4462C16.5194 60.9597 16.733 60.4426 16.8549 59.9849C16.9269 59.7149 16.9675 59.4659 16.9708 59.2483C16.9741 59.0306 16.9558 58.8378 16.8214 58.6709C16.4011 58.15 15.8101 58.006 15.353 58.0011C15.3388 58.0007 15.3246 58.0006 15.3104 58.0008V58ZM15.2984 58.1601C15.7307 58.156 16.2833 58.2738 16.6798 58.7656C16.769 58.876 16.7954 59.0375 16.7924 59.2366C16.7892 59.4354 16.7513 59.6732 16.682 59.9339C16.5475 60.439 16.2933 61.0276 15.9353 61.5561C15.948 61.5649 15.9617 61.5722 15.9762 61.5777C16.0509 61.6077 16.2211 61.6333 16.5612 61.5657C16.6465 61.5479 16.7093 61.5362 16.7742 61.5842C16.7897 61.5971 16.802 61.6134 16.8102 61.6319C16.8184 61.6503 16.8222 61.6704 16.8214 61.6906C16.8177 61.721 16.8062 61.75 16.7878 61.7746C16.7224 61.8703 16.5925 61.9611 16.4262 62.0358C16.2792 62.1024 16.0681 62.137 15.881 62.1392C15.7872 62.14 15.7007 62.1329 15.6273 62.1108L15.6224 62.1092C15.5941 62.374 15.5289 62.8974 15.4866 63.136C15.4525 63.3286 15.3931 63.4816 15.2793 63.5961C15.1659 63.7107 15.0055 63.7797 14.7895 63.8247C14.522 63.8803 14.327 63.8203 14.2012 63.7175C14.0758 63.6152 14.0182 63.4791 13.9836 63.3957C13.9599 63.3384 13.9476 63.2639 13.9356 63.1644C13.9224 63.0452 13.9136 62.9256 13.9091 62.8058C13.9013 62.5957 13.8988 62.3854 13.9015 62.1752C13.7897 62.2742 13.6506 62.3402 13.5014 62.365C13.3241 62.3942 13.1654 62.3656 13.0708 62.3427C13.0244 62.3312 12.9795 62.3143 12.9371 62.2922C12.8929 62.2696 12.8512 62.2439 12.8234 62.1932C12.807 62.1643 12.8018 62.1303 12.8087 62.0978C12.8176 62.0647 12.8374 62.0356 12.8648 62.0151C12.9161 61.9748 12.9835 61.9524 13.0852 61.9317C13.2707 61.8948 13.3353 61.8695 13.3746 61.8392C13.4081 61.8133 13.446 61.7609 13.5131 61.6837L13.5123 61.6737C13.3927 61.6701 13.2755 61.6396 13.1695 61.5842C13.131 61.6235 12.9336 61.8261 12.6928 62.107C12.5916 62.2246 12.4798 62.2919 12.3617 62.2968C12.2436 62.3018 12.1369 62.2439 12.0464 62.1588C11.865 61.9881 11.7205 61.6944 11.5945 61.3625C11.469 61.0303 11.3665 60.6605 11.2939 60.3455C11.2208 60.0305 11.1777 59.7766 11.1717 59.6541C11.1445 59.1335 11.2699 58.7827 11.4854 58.5615C11.7008 58.3404 11.9959 58.2564 12.2839 58.2405C12.8005 58.2116 13.2911 58.3865 13.3904 58.4241C13.5816 58.2981 13.8279 58.2195 14.1358 58.2245C14.2817 58.2265 14.427 58.2448 14.5689 58.279L14.5741 58.2768C14.6366 58.2555 14.7001 58.2377 14.7644 58.2234C14.9396 58.1838 15.1185 58.1628 15.2982 58.1606L15.2984 58.1601ZM15.3374 58.3275H15.3001C15.1525 58.3295 15.0055 58.3456 14.861 58.3755C15.1478 58.5005 15.3998 58.6935 15.5952 58.9379C15.7135 59.0841 15.8116 59.2456 15.887 59.4179C15.9153 59.4839 15.9344 59.5398 15.9451 59.5829C15.9505 59.6047 15.9543 59.623 15.9554 59.6421C15.9564 59.6542 15.9554 59.6664 15.9524 59.6781L15.9508 59.6814C15.9587 59.9004 15.9028 60.0487 15.896 60.2577C15.8908 60.4093 15.9306 60.5874 15.9404 60.7813C15.9497 60.964 15.9271 61.1645 15.8049 61.3614C15.8151 61.3734 15.8249 61.3854 15.8343 61.3974C16.1575 60.9037 16.3907 60.3572 16.5148 59.8916C16.5811 59.6407 16.6165 59.4136 16.6195 59.2336C16.6223 59.0536 16.5876 58.9229 16.5434 58.8686C16.1976 58.4396 15.7299 58.3305 15.3374 58.3275ZM14.1033 58.3914C13.7987 58.3919 13.5799 58.4814 13.4144 58.615C13.2434 58.7533 13.1289 58.9423 13.0536 59.1362C12.9807 59.33 12.9362 59.5332 12.9213 59.7397L12.9248 59.7378C13.0168 59.6876 13.1376 59.6377 13.2669 59.6088C13.3964 59.5799 13.5358 59.5709 13.662 59.6184C13.7883 59.6658 13.8928 59.7776 13.9307 59.9473C14.112 60.7617 13.8742 61.0644 13.7864 61.2927C13.7535 61.3755 13.7251 61.4601 13.7013 61.546C13.7122 61.5429 13.7232 61.5407 13.7343 61.5395C13.7822 61.5369 13.83 61.5463 13.8734 61.5667C13.9618 61.6022 14.0223 61.6764 14.055 61.7615C14.0636 61.784 14.0697 61.8077 14.0733 61.8324C14.077 61.8428 14.0787 61.8534 14.0785 61.8643C14.0687 62.1757 14.0698 62.4873 14.0818 62.7987C14.0878 62.9334 14.0965 63.0518 14.1077 63.1453C14.1186 63.2386 14.1344 63.3095 14.1445 63.3335C14.1772 63.4137 14.2255 63.5184 14.3128 63.5896C14.4001 63.6608 14.5247 63.7079 14.753 63.6605C14.951 63.6193 15.0731 63.5623 15.155 63.4797C15.2362 63.3976 15.2851 63.2833 15.3162 63.1079C15.3628 62.8453 15.4566 62.0841 15.4678 61.9407C15.4629 61.8329 15.4792 61.7498 15.5147 61.6865C15.5515 61.6216 15.6082 61.5817 15.6571 61.5602C15.6816 61.5493 15.7045 61.5422 15.7233 61.537C15.7033 61.5093 15.6824 61.4822 15.6606 61.4557C15.5901 61.3732 15.5323 61.2807 15.4891 61.1811C15.4682 61.1401 15.4461 61.0999 15.4228 61.0603C15.3887 61.0003 15.3453 60.9253 15.3001 60.841C15.2092 60.6722 15.1105 60.4677 15.0592 60.2683C15.0082 60.0695 15.0006 59.8636 15.1315 59.7182C15.2477 59.5892 15.4512 59.5357 15.7569 59.5657C15.7479 59.5396 15.7424 59.5177 15.7272 59.4828C15.6582 59.3244 15.568 59.176 15.4591 59.0418C15.2 58.7205 14.7808 58.402 14.1328 58.3916H14.1033V58.3914ZM12.3917 58.4042C12.3589 58.4042 12.3262 58.4051 12.2935 58.4069C12.0333 58.4214 11.7873 58.4947 11.6114 58.6758C11.4349 58.8566 11.319 59.1534 11.3441 59.6448C11.3493 59.7376 11.391 59.9983 11.4625 60.3076C11.5339 60.6174 11.6354 60.9815 11.757 61.303C11.8787 61.6248 12.0265 61.9049 12.1667 62.0375C12.2373 62.1038 12.2987 62.1305 12.3543 62.1283C12.4102 62.1256 12.4773 62.0945 12.5597 61.9988C12.7097 61.8232 12.8652 61.6525 13.026 61.4868C12.9124 61.3915 12.8249 61.2689 12.7718 61.1304C12.7192 60.9932 12.7032 60.8447 12.7255 60.6995C12.7519 60.5146 12.7555 60.3417 12.7525 60.2053C12.7492 60.0722 12.7394 59.9838 12.7394 59.9285V59.9208C12.7391 59.6326 12.7908 59.3467 12.8918 59.0767C12.9639 58.8907 13.0713 58.7017 13.2325 58.5487C13.0743 58.4983 12.7934 58.4214 12.4893 58.4069C12.4566 58.4052 12.4239 58.4043 12.3911 58.4042H12.3917ZM15.5864 59.7247C15.4116 59.7269 15.3134 59.7708 15.2619 59.8281C15.1888 59.9094 15.182 60.0517 15.2272 60.2274C15.2725 60.403 15.3655 60.5997 15.4533 60.7627C15.497 60.8446 15.5395 60.9182 15.5739 60.9777C15.6085 61.0377 15.6339 61.0802 15.6492 61.1167C15.6637 61.1497 15.679 61.1797 15.695 61.207C15.7626 61.0682 15.7749 60.9321 15.7678 60.79C15.7588 60.6144 15.7168 60.4347 15.7231 60.2527C15.7299 60.04 15.7732 59.9012 15.7771 59.7367C15.7138 59.729 15.6502 59.725 15.5864 59.7247ZM13.4646 59.7534C13.4112 59.7538 13.3579 59.76 13.3059 59.7719C13.2023 59.7963 13.1024 59.8341 13.0086 59.8843C12.9771 59.9006 12.9471 59.9196 12.9186 59.9413L12.9131 59.9462C12.9148 59.9827 12.9221 60.0714 12.9254 60.2015C12.9281 60.3441 12.9248 60.526 12.8965 60.7224C12.8348 61.15 13.1545 61.504 13.5303 61.5046C13.5521 61.4167 13.5884 61.3278 13.6244 61.234C13.7291 60.9605 13.935 60.7611 13.7616 59.9825C13.7332 59.8551 13.677 59.8036 13.5996 59.7744C13.5562 59.7593 13.5105 59.7522 13.4646 59.7534ZM15.5046 59.8044H15.5177C15.5348 59.8049 15.5502 59.8067 15.5641 59.8098C15.5766 59.8124 15.5886 59.8171 15.5995 59.8237C15.6045 59.8267 15.6088 59.8306 15.6121 59.8353C15.6155 59.84 15.6178 59.8454 15.6189 59.851V59.8532C15.6196 59.8652 15.6163 59.8771 15.6096 59.887C15.602 59.9008 15.5924 59.9133 15.5812 59.9244C15.5548 59.9524 15.52 59.9711 15.482 59.9776C15.4447 59.982 15.4071 59.9728 15.3762 59.9516C15.3637 59.9434 15.3524 59.9335 15.3426 59.9222C15.3343 59.9134 15.3287 59.9024 15.3262 59.8906C15.3257 59.8847 15.3263 59.8788 15.3282 59.8733C15.3301 59.8677 15.3331 59.8626 15.3372 59.8584C15.3459 59.8492 15.3561 59.8417 15.3674 59.836C15.4106 59.8162 15.4574 59.8052 15.5049 59.8038L15.5046 59.8044ZM13.4897 59.8464C13.5033 59.8464 13.5176 59.8475 13.5325 59.8496C13.5718 59.8551 13.6069 59.8652 13.6337 59.8802C13.6468 59.8869 13.6582 59.8957 13.668 59.9066C13.6731 59.9126 13.677 59.9193 13.6795 59.9266C13.682 59.9338 13.6829 59.9414 13.682 59.9492C13.6795 59.9637 13.6727 59.977 13.6626 59.9876C13.652 60.0004 13.6396 60.0114 13.6258 60.0204C13.5919 60.0434 13.5508 60.0534 13.5101 60.0485C13.4689 60.0418 13.4309 60.0218 13.4021 59.9915C13.3902 59.9793 13.3799 59.9655 13.3716 59.9506C13.3631 59.9375 13.3593 59.9219 13.3609 59.9064C13.3648 59.8791 13.3879 59.8655 13.41 59.8573C13.4356 59.8492 13.4624 59.8459 13.4891 59.8475L13.4897 59.8464ZM15.8242 61.6824H15.8234C15.7855 61.696 15.7544 61.7015 15.728 61.7124C15.7016 61.7222 15.6798 61.7413 15.6666 61.7661C15.6502 61.7948 15.6366 61.8458 15.6407 61.9325C15.6525 61.9402 15.6653 61.9461 15.6789 61.9499C15.7228 61.963 15.7967 61.9718 15.8793 61.9704C16.0435 61.9685 16.2459 61.9314 16.3533 61.8828C16.4414 61.843 16.5233 61.7912 16.5964 61.729C16.2372 61.801 16.0345 61.7819 15.9099 61.732C15.8791 61.7195 15.8503 61.703 15.8242 61.6824ZM13.7548 61.7056H13.7493C13.7357 61.7067 13.7158 61.711 13.6776 61.7525C13.5876 61.8501 13.5565 61.9112 13.4823 61.9685C13.4087 62.0258 13.3124 62.056 13.1204 62.0942C13.0596 62.1062 13.0249 62.1196 13.0015 62.1302C13.0091 62.1362 13.0083 62.1378 13.0195 62.1436C13.0476 62.1586 13.0839 62.1717 13.1128 62.179C13.1954 62.1989 13.3309 62.2224 13.4725 62.1989C13.614 62.1755 13.761 62.1098 13.8865 61.939C13.9083 61.9096 13.9105 61.8659 13.8928 61.819C13.8745 61.7727 13.8352 61.7323 13.8074 61.7208C13.7908 61.713 13.773 61.708 13.7548 61.7061V61.7056Z" fill="black" opacity="0"/>
<path classname="element11" fill-rule="evenodd" clip-rule="evenodd" d="M29.822 29.4411C29.7221 29.4411 29.6232 29.46 29.5309 29.4966C29.4386 29.5333 29.3548 29.587 29.2841 29.6547C29.2135 29.7224 29.1575 29.8028 29.1193 29.8913C29.0811 29.9798 29.0614 30.0746 29.0614 30.1704C29.0614 30.2662 29.0811 30.361 29.1193 30.4495C29.1575 30.538 29.2135 30.6184 29.2841 30.6861C29.3548 30.7539 29.4386 30.8076 29.5309 30.8442C29.6232 30.8809 29.7221 30.8998 29.822 30.8998H30.5825V29.4411H29.822ZM30.5825 29.0175H29.822C29.6202 29.0175 29.4267 28.9407 29.284 28.8039C29.1414 28.6671 29.0612 28.4815 29.0612 28.2881C29.0612 28.0946 29.1414 27.9091 29.284 27.7723C29.4267 27.6354 29.6202 27.5586 29.822 27.5586H30.5825V29.0175ZM31.0242 27.5586V29.0175H31.7848C31.9839 29.0138 32.1736 28.9353 32.3131 28.7989C32.4526 28.6625 32.5307 28.4791 32.5307 28.2881C32.5307 28.0971 32.4526 27.9136 32.3131 27.7773C32.1736 27.6409 31.9839 27.5624 31.7848 27.5586H31.0242ZM31.7848 29.4408C31.5851 29.4408 31.3935 29.516 31.2512 29.6503C31.1089 29.7846 31.0274 29.9671 31.0242 30.1586V30.182C31.0266 30.3257 31.0733 30.4656 31.1584 30.5839C31.2434 30.7023 31.363 30.7939 31.5022 30.8473C31.6414 30.9007 31.7939 30.9135 31.9406 30.884C32.0873 30.8545 32.2217 30.7841 32.3268 30.6817C32.4319 30.5792 32.5032 30.4493 32.5315 30.3081C32.5599 30.167 32.5441 30.0209 32.4862 29.8884C32.4283 29.7558 32.3308 29.6426 32.206 29.5629C32.0812 29.4833 31.9347 29.4408 31.7848 29.4408ZM29.822 31.3233C29.6715 31.3232 29.5243 31.366 29.3992 31.4461C29.274 31.5263 29.1764 31.6402 29.1188 31.7735C29.0612 31.9068 29.0461 32.0535 29.0754 32.1951C29.1047 32.3366 29.1771 32.4667 29.2835 32.5687C29.3899 32.6708 29.5255 32.7403 29.6731 32.7685C29.8207 32.7967 29.9737 32.7822 30.1128 32.727C30.2518 32.6718 30.3707 32.5783 30.4543 32.4583C30.5379 32.3383 30.5825 32.1972 30.5825 32.0529V31.3233H29.822Z" fill="black" opacity="0"/>
<path classname="element10" d="M50.6147 65.0595C50.8502 64.1537 51.4393 63.7007 52.3815 63.7007C53.7948 63.7007 53.9715 64.7198 54.6782 64.8897C55.1494 65.003 55.5615 64.8331 55.9149 64.3801C55.6794 65.286 55.0904 65.739 54.1482 65.739C52.7348 65.739 52.5581 64.7198 51.8514 64.55C51.3803 64.4367 50.9681 64.6065 50.6147 65.0595ZM48.848 67.0978C49.0835 66.192 49.6726 65.739 50.6147 65.739C52.0281 65.739 52.2048 66.7581 52.9115 66.928C53.3827 67.0413 53.7948 66.8714 54.1482 66.4184C53.9127 67.3242 53.3236 67.7773 52.3815 67.7773C50.9681 67.7773 50.7914 66.7581 50.0847 66.5883C49.6135 66.475 49.2014 66.6448 48.848 67.0978Z" fill="black" opacity="0"/>
<path classname="element9" d="M25.4192 68.6486C25.3271 68.6331 25.2317 68.5912 25.1776 68.5448C25.1408 68.5079 25.1198 68.4591 25.1188 68.408C25.1188 68.3561 25.1464 68.2833 25.1901 68.2107C25.2166 68.1697 25.2373 68.126 25.2522 68.0794C25.2615 68.0474 25.2809 67.9955 25.2959 67.9625L25.3224 67.9019L25.3293 67.4972C25.3328 67.2734 25.3397 67.066 25.3454 67.0339C25.3604 66.9411 25.3856 66.8507 25.4189 66.7626L25.4443 66.7041L25.4074 66.6832C25.3741 66.6633 25.3465 66.6357 25.2372 66.511C25.1027 66.3587 24.9256 66.2749 24.6747 66.2463C24.5928 66.2385 24.5104 66.233 24.4274 66.2298C24.0592 66.2132 23.8488 66.1393 23.6591 65.9606C23.5175 65.8272 23.444 65.6715 23.4142 65.4422C23.374 65.1322 23.3291 64.9733 23.2463 64.8444C23.2257 64.8127 23.2022 64.7827 23.1761 64.755L23.1427 64.723L23.0692 64.7683C23.029 64.7937 22.9725 64.8257 22.9449 64.8401C22.853 64.8888 22.7652 64.9425 22.6814 65.0011C22.4756 65.1444 22.2512 65.3242 22.1282 65.4422C22.073 65.4951 22.0443 65.5182 22.0315 65.5161C21.9476 65.504 22.0118 65.1555 22.1487 64.8929C22.3236 64.5542 22.618 64.2421 22.9586 64.0314C23.2381 63.8581 23.6902 63.6199 23.8993 63.536C24.2708 63.3872 24.7516 63.226 25.0806 63.14C25.1497 63.1212 25.1921 63.1047 25.2208 63.086C25.2853 63.043 25.3485 63.0221 25.4209 63.021C25.4819 63.02 25.4876 63.0189 25.5464 62.9812C25.6155 62.9382 25.636 62.9359 25.7051 62.9592L25.75 62.9746L25.8052 62.9382L25.8604 62.9029L25.9397 62.9039C26.0006 62.905 26.0282 62.9029 26.0547 62.8918C26.0881 62.8774 26.0892 62.8753 26.0985 62.8224C26.1192 62.7076 26.1214 62.6502 26.1088 62.5807C26.0927 62.4893 26.0905 62.1341 26.1066 62.0645C26.1239 61.9895 26.1353 61.974 26.1941 61.9465C26.2815 61.9056 26.3471 61.8936 26.4977 61.8936C26.6817 61.8936 26.7749 61.9179 26.844 61.9819C26.9061 62.0393 26.9164 62.1737 26.8842 62.4893C26.8645 62.6712 26.8623 62.722 26.8681 62.841C26.8703 62.917 26.876 62.9888 26.8785 62.9988C26.8831 63.0176 26.8877 63.0187 26.9544 63.0197C27.02 63.0208 27.0315 63.0242 27.0936 63.0551C27.1534 63.085 27.1982 63.1214 27.2075 63.1479C27.2088 63.1534 27.2188 63.1534 27.2373 63.1479C27.2729 63.1379 27.304 63.1489 27.3294 63.1788C27.3444 63.1976 27.3535 63.2008 27.3882 63.2008C27.4354 63.2008 27.4526 63.2118 27.4917 63.2671C27.5102 63.2918 27.5352 63.3112 27.5642 63.3234C27.6287 63.3543 27.7161 63.4403 27.7495 63.5087C27.8011 63.6102 27.8115 63.7281 27.7793 63.834C27.7678 63.8738 27.7678 63.8749 27.7919 63.9134C27.8424 63.9962 27.861 64.0977 27.8402 64.1836L27.8287 64.2345L27.8632 64.2675C28.0346 64.4318 28.0092 64.6999 27.8 64.9392C27.7766 64.9666 27.7569 64.9966 27.7413 65.0286C27.7011 65.1311 27.6549 65.2029 27.5953 65.2624L27.5344 65.3219H27.4723C27.4102 65.3219 27.3228 65.302 27.2698 65.2755C27.2479 65.2645 27.2468 65.2645 27.2515 65.2776C27.2654 65.3261 27.2998 65.5235 27.3113 65.6328C27.3296 65.8005 27.3239 66.0443 27.2998 66.1491C27.2822 66.2267 27.2528 66.3014 27.2124 66.3708C27.1894 66.4062 27.1883 66.4138 27.1927 66.4568C27.1996 66.5173 27.1848 66.619 27.1594 66.6861C27.1282 66.7645 27.1167 66.8009 27.1099 66.8405C27.1042 66.8746 27.1042 66.8746 27.1296 66.8746C27.1629 66.8746 27.1812 66.8935 27.1812 66.9309C27.1812 66.9475 27.1662 67.0368 27.1479 67.1283C27.0973 67.3854 27.0938 67.414 27.0938 67.6632C27.0927 67.9203 27.0927 67.918 27.1536 67.9565L27.2905 68.0415C27.4083 68.1165 27.5345 68.1786 27.6666 68.2268C27.8588 68.2996 27.8853 68.3182 27.8853 68.3801C27.8853 68.4076 27.8795 68.4176 27.8555 68.4396C27.7819 68.508 27.6368 68.5234 27.3447 68.4936C27.1928 68.48 27.0404 68.473 26.888 68.4726C26.4854 68.4671 26.4266 68.4538 26.3738 68.3578C26.344 68.3028 26.3498 68.231 26.3911 68.113C26.4093 68.0612 26.4254 68.0083 26.4394 67.9542C26.467 67.8263 26.4487 67.674 26.3842 67.5021L26.329 67.3553C26.2749 67.2064 26.2451 66.9339 26.2773 66.8723C26.2831 66.8602 26.2935 66.8579 26.3211 66.8589L26.3555 66.8623L26.3842 66.8049C26.4061 66.7596 26.4302 66.73 26.4957 66.6671L26.5797 66.5866L26.575 66.5347C26.5715 66.4852 26.5037 66.2446 26.4944 66.2456C26.4909 66.2456 26.4726 66.27 26.4518 66.3007C26.4012 66.3736 26.2897 66.486 26.2263 66.5269C26.1987 66.5445 26.1757 66.5654 26.1757 66.5722C26.1746 66.6021 26.1481 66.6605 26.1159 66.7012C26.0848 66.741 26.0826 66.7475 26.0872 66.7827C26.0951 66.8346 26.0779 67.001 26.0574 67.0883C26.0387 67.1531 26.0133 67.2158 25.9814 67.2757C25.9021 67.4335 25.8423 67.5745 25.8273 67.6397C25.8166 67.7026 25.8097 67.7659 25.8065 67.8295C25.803 67.9044 25.795 67.9773 25.7893 67.9928C25.7813 68.0137 25.7813 68.0302 25.7882 68.0622C25.7939 68.0853 25.7975 68.1372 25.7961 68.1781C25.795 68.2344 25.7997 68.2708 25.8169 68.3369C25.8467 68.4493 25.8524 68.5201 25.8387 68.562C25.8295 68.5885 25.8204 68.5984 25.7893 68.6128C25.7202 68.6469 25.5247 68.6658 25.4189 68.6482L25.4192 68.6486ZM25.6985 68.5582C25.7387 68.5472 25.7734 68.5141 25.7734 68.4843C25.7734 68.4709 25.7619 68.4324 25.748 68.3983C25.7204 68.3333 25.6731 68.1611 25.6731 68.1325C25.6731 68.1181 25.6742 68.1171 25.6972 68.1291L25.7226 68.1425V68.1116C25.719 68.083 25.7124 68.0549 25.7029 68.0277C25.6811 67.9648 25.6789 67.9637 25.5395 67.9559L25.4452 67.9515L25.4108 67.9834C25.3918 68.0022 25.3752 68.0229 25.3613 68.0453C25.3463 68.0739 25.3405 68.1171 25.3498 68.1268C25.352 68.1302 25.3752 68.1268 25.4004 68.1213C25.4154 68.1172 25.4308 68.1147 25.4463 68.1137C25.4463 68.1147 25.4209 68.1346 25.3889 68.1556C25.2509 68.2549 25.2025 68.3155 25.2025 68.3928C25.2025 68.4733 25.2818 68.5362 25.4061 68.555C25.4911 68.5671 25.6568 68.5705 25.6983 68.5584L25.6985 68.5582ZM27.5699 68.4269C27.6044 68.3871 27.5997 68.3464 27.556 68.3C27.5307 68.2755 27.5019 68.2549 27.4696 68.2382C27.4213 68.2132 27.4052 68.2028 27.3729 68.1831C27.3146 68.1469 27.2547 68.113 27.1934 68.0817C27.1404 68.0543 27.0886 68.0253 27.0381 67.9947L27.0174 67.9792V67.6759C27.0174 67.3771 27.0163 67.3727 27.0001 67.3771C26.9195 67.3981 26.7862 67.4081 26.6172 67.4047L26.4344 67.4025L26.4609 67.4644C26.5103 67.5813 26.5357 67.738 26.5357 67.9178C26.5357 67.9851 26.5311 68.0093 26.5139 68.0567C26.5049 68.0799 26.4964 68.103 26.4885 68.1262C26.4849 68.1361 26.4977 68.1437 26.5448 68.1571C26.5792 68.167 26.6298 68.177 26.6587 68.1802L26.7117 68.1857L26.706 68.2365C26.7002 68.2939 26.7071 68.3545 26.7221 68.3733C26.7314 68.3843 26.7658 68.3888 26.9257 68.3953C27.0465 68.4008 27.1777 68.4129 27.2811 68.4273C27.3707 68.4406 27.4674 68.4517 27.4962 68.4517C27.5445 68.4527 27.5492 68.4506 27.5697 68.4273L27.5699 68.4269ZM25.7285 67.9108C25.7332 67.9074 25.74 67.8479 25.7425 67.7774C25.7517 67.58 25.7597 67.5512 25.8633 67.3284C25.9483 67.1465 25.9933 66.9767 25.9898 66.8564L25.9876 66.7846L25.9554 66.8145C25.8887 66.8784 25.9346 66.778 26.0141 66.6887C26.0739 66.6203 26.0947 66.5828 26.1038 66.5222C26.1084 66.4979 26.1177 66.4858 26.1568 66.4572C26.3029 66.3511 26.4155 66.2083 26.4823 66.0447C26.4984 66.0049 26.5397 65.8693 26.5744 65.7435C26.6389 65.5108 26.6733 65.4104 26.7044 65.3674C26.7159 65.3506 26.7206 65.3477 26.7184 65.3585C26.7015 65.4176 26.6884 65.4777 26.6793 65.5383C26.67 65.5923 26.6528 65.6982 26.6413 65.7721C26.6194 65.9233 26.5964 66.0203 26.5653 66.0953L26.5446 66.1461L26.5998 66.2829C26.6572 66.4229 26.6837 66.5245 26.6883 66.6226L26.6919 66.6777L26.647 66.6866C26.5878 66.6966 26.535 66.7282 26.4997 66.7749C26.4606 66.8289 26.4388 66.8731 26.4491 66.8829C26.4538 66.8873 26.5101 66.8973 26.5746 66.9049C26.6746 66.9159 26.7126 66.9159 26.8449 66.9083C26.9023 66.906 26.9591 66.9009 27.0152 66.8928C27.0277 66.8884 27.0406 66.8642 27.0611 66.8013C27.1084 66.6569 27.1174 66.6061 27.1117 66.5046L27.107 66.4153L27.1311 66.3854C27.1874 66.317 27.2311 66.1936 27.2495 66.0489C27.2713 65.8725 27.2311 65.503 27.1563 65.1853C27.1207 65.0341 27.1057 64.9437 27.1057 64.8776V64.8192L27.0494 64.8247C26.8469 64.8456 26.602 64.8401 26.4525 64.8103C26.3708 64.7948 26.1649 64.7364 26.1201 64.7175L26.0845 64.7021L26.0799 64.7406C26.0767 64.7613 26.0728 64.7827 26.0684 64.8045C26.0616 64.8276 26.0638 64.8331 26.1064 64.873C26.1594 64.9248 26.1755 64.9513 26.1755 64.9865C26.1755 65.0085 26.1629 65.0263 26.0985 65.0902C26.0522 65.1375 26.0009 65.18 25.9454 65.2171L25.8705 65.2656L25.8383 65.3725C25.7232 65.7641 25.7014 66.1203 25.7774 66.375L25.7957 66.439L25.7588 66.483C25.6208 66.6495 25.5391 66.7763 25.5265 66.8471C25.5192 66.8819 25.5107 66.9165 25.5011 66.9508C25.4713 67.0601 25.4481 67.22 25.4379 67.3932C25.4309 67.5382 25.4209 67.6831 25.4081 67.8278L25.4024 67.8708L25.4598 67.8873C25.492 67.8972 25.5404 67.9083 25.568 67.9127C25.6197 67.9203 25.7153 67.9182 25.7301 67.9106L25.7285 67.9108ZM26.8453 67.3041C26.935 67.2986 27.0167 67.2852 27.0328 67.2721C27.0397 67.2676 27.0478 67.2446 27.0501 67.2213L27.0558 67.1793L26.9845 67.1948C26.9282 67.2058 26.8718 67.2124 26.8153 67.2168C26.6795 67.2223 26.5428 67.2189 26.4081 67.2058C26.3632 67.1992 26.3632 67.1992 26.3769 67.2554C26.3884 67.2973 26.3908 67.2994 26.5081 67.3073C26.5863 67.3138 26.6956 67.3128 26.8451 67.3039L26.8453 67.3041ZM26.7705 67.1122C26.8877 67.1023 27.0339 67.0781 27.0626 67.0637C27.0719 67.0593 27.0799 67.0427 27.0834 67.0239L27.0938 66.9655L27.0995 66.9379L27.0708 66.9434C26.9432 66.9688 26.8464 66.9765 26.6532 66.9765C26.4646 66.9765 26.4427 66.9754 26.3933 66.9589C26.3743 66.9511 26.354 66.9466 26.3334 66.9455C26.3255 66.95 26.3242 67.0129 26.3312 67.0569C26.3359 67.0834 26.3405 67.0879 26.3681 67.0955C26.4556 67.1186 26.6029 67.1241 26.7707 67.1109L26.7705 67.1122ZM24.6358 66.1173C24.9302 66.0358 25.3156 65.7963 25.6307 65.4964C25.7332 65.3981 25.7458 65.385 25.7595 65.341L25.7778 65.2846C25.78 65.2802 25.7617 65.2726 25.7376 65.2671C25.6744 65.2527 25.6261 65.2175 25.6261 65.1855C25.6261 65.1667 25.6146 65.148 25.5812 65.1137C25.5271 65.0553 25.5135 65.0299 25.5077 64.9738L25.5031 64.9284L25.4386 64.8844C25.4017 64.859 25.273 64.7906 25.136 64.7245C25.0318 64.6756 24.9298 64.6226 24.8302 64.5657C24.7151 64.4918 24.638 64.4035 24.5943 64.2988C24.5864 64.2779 24.576 64.2603 24.5725 64.2603C24.5632 64.2603 24.3044 64.4996 24.1939 64.6121C23.9214 64.8878 23.7339 65.1271 23.6153 65.3488C23.5855 65.4039 23.5533 65.4691 23.544 65.4932L23.5268 65.5373L23.5475 65.6112C23.5601 65.651 23.5866 65.716 23.6074 65.7546C23.6798 65.8914 23.7662 65.9739 23.9088 66.0413C24.0619 66.1141 24.1975 66.1395 24.424 66.1362C24.546 66.1351 24.5817 66.1317 24.6356 66.1163L24.6358 66.1173ZM22.3124 65.1499C22.5056 64.9856 22.7724 64.8058 23.0992 64.6195C23.3132 64.4971 24.1403 64.1 24.521 63.9378C24.5901 63.9079 24.6522 63.8804 24.659 63.8772C24.6659 63.8728 24.6855 63.8253 24.7039 63.7724C24.7845 63.5276 24.8247 63.4791 24.9706 63.4471C24.989 63.4427 24.9936 63.4371 24.9936 63.4196C24.9936 63.3876 25.0166 63.3137 25.0362 63.2807C25.0512 63.2552 25.0512 63.2542 25.0384 63.2576C25.0305 63.2597 24.9821 63.273 24.9315 63.2874C24.2299 63.4816 23.6169 63.7396 23.0877 64.0617C22.5231 64.4058 22.1975 64.8183 22.1032 65.3124L22.0964 65.3488L22.1655 65.2838C22.2024 65.2474 22.2691 65.1879 22.3128 65.1514L22.3124 65.1499ZM27.5171 65.2438C27.5734 65.2162 27.6609 65.0894 27.6931 64.989C27.7024 64.9536 27.7207 64.9206 27.7472 64.8931C27.8323 64.8026 27.9025 64.6383 27.9036 64.5259C27.9036 64.3505 27.8 64.2832 27.6494 64.3581C27.6298 64.367 27.6139 64.3736 27.6114 64.3715C27.6035 64.3639 27.6459 64.324 27.6978 64.2931C27.7656 64.2501 27.7784 64.2247 27.7784 64.1332C27.7792 64.0593 27.7563 63.9869 27.7128 63.9259C27.692 63.8961 27.6841 63.8764 27.6874 63.8641L27.7082 63.7902C27.7369 63.6919 27.7265 63.5795 27.6817 63.5079C27.615 63.3999 27.5333 63.3469 27.4193 63.338L27.3526 63.3336L27.3917 63.3755C27.5079 63.4958 27.5642 63.6468 27.5412 63.776C27.5297 63.8423 27.5193 63.8554 27.4526 63.8808L27.4136 63.8963L27.4182 63.9471C27.4261 64.0299 27.4113 64.0905 27.3561 64.2019C27.3285 64.2582 27.3078 64.3088 27.3102 64.3143C27.317 64.3331 27.393 64.3683 27.4529 64.3827L27.5116 64.396L27.4747 64.4081C27.4264 64.4225 27.416 64.4435 27.416 64.5195C27.416 64.589 27.4264 64.6178 27.4791 64.6938C27.5032 64.7268 27.5193 64.7611 27.5218 64.7808C27.5264 64.8117 27.5253 64.8139 27.4988 64.8228C27.4687 64.8307 27.4379 64.8355 27.4067 64.8372C27.2985 64.8437 27.2905 64.8471 27.2422 64.8912C27.1985 64.931 27.1974 64.9331 27.1974 64.9771C27.1974 65.0377 27.2214 65.1603 27.2364 65.1768C27.2561 65.1967 27.3652 65.2486 27.4078 65.2563C27.4446 65.2652 27.4835 65.2609 27.5171 65.2442V65.2438ZM25.924 65.1612C25.9942 65.1082 26.0494 65.0553 26.0803 65.01C26.1 64.9824 26.1011 64.9769 26.0918 64.9536C26.0757 64.9183 25.9699 64.8268 25.9112 64.7993C25.8721 64.7822 25.8307 64.7707 25.7882 64.7652L25.7157 64.7563L25.6709 64.7023C25.5777 64.5919 25.526 64.506 25.4523 64.3393C25.3878 64.198 25.3315 64.1154 25.2418 64.0337C25.2049 64.0007 25.1787 63.9731 25.1809 63.9731C25.1855 63.9731 25.2292 63.9941 25.2798 64.0195C25.3637 64.0625 25.3741 64.0659 25.4121 64.0604C25.549 64.0449 25.6698 63.8939 25.7135 63.6822C25.7261 63.6227 25.7515 63.5619 25.778 63.5255C25.7791 63.5244 25.8321 63.5574 25.8942 63.6004C26.0519 63.7074 26.0863 63.7239 26.176 63.7273C26.2347 63.7294 26.2681 63.7252 26.3738 63.7008C26.5993 63.6479 26.8431 63.6269 26.9915 63.6457C27.0755 63.6568 27.1963 63.6921 27.2859 63.7328C27.3745 63.7726 27.3917 63.7747 27.4204 63.7504C27.4445 63.7305 27.4445 63.7273 27.4445 63.6534C27.4434 63.5441 27.4019 63.4261 27.3387 63.3556C27.3064 63.3192 27.2157 63.2597 27.1258 63.2144C27.0939 63.1981 27.062 63.1816 27.0304 63.1648C26.9878 63.1405 26.9396 63.1438 26.8085 63.1769C26.6565 63.2144 26.6163 63.2144 26.4427 63.1714C26.2954 63.136 26.2864 63.135 26.1413 63.157C26.0642 63.168 25.871 63.1614 25.8065 63.1449C25.7743 63.136 25.742 63.1273 25.7111 63.1163C25.6548 63.0954 25.557 63.092 25.4684 63.1074C25.2924 63.1373 25.159 63.2288 25.1106 63.3533C25.0852 63.4162 25.0888 63.446 25.1221 63.4657C25.1751 63.4977 25.2451 63.585 25.2451 63.6191C25.2451 63.6212 25.2279 63.607 25.2083 63.5871C25.1588 63.5375 25.114 63.5153 25.061 63.5153C25.0266 63.5161 24.9932 63.5261 24.9646 63.5443C24.9359 63.5624 24.9132 63.5879 24.8989 63.6178C24.8834 63.6568 24.8703 63.6966 24.8598 63.737C24.8275 63.8495 24.7988 63.9092 24.7379 63.9886C24.6838 64.0604 24.6758 64.0924 24.6952 64.1728C24.7436 64.3757 24.8275 64.4575 25.1782 64.6483C25.3622 64.7486 25.4565 64.805 25.5256 64.8545C25.5786 64.892 25.5797 64.8943 25.5751 64.9229C25.5647 64.9892 25.6084 65.0608 25.6948 65.1192C25.7166 65.1336 25.7303 65.1491 25.7303 65.1601C25.7303 65.18 25.7891 65.2075 25.8315 65.2075C25.8555 65.2075 25.8741 65.1976 25.9236 65.1612H25.924ZM27.3422 64.7893C27.4756 64.7937 27.4825 64.7838 27.4113 64.7044C27.3365 64.6216 27.3159 64.5544 27.3435 64.4805L27.355 64.452L27.3078 64.4299C27.2917 64.4223 27.2755 64.4145 27.2594 64.409C27.2515 64.4388 27.2433 64.4674 27.2364 64.4973C27.2192 64.5646 27.1985 64.7389 27.1974 64.8128C27.1974 64.8194 27.2088 64.8173 27.2285 64.8052C27.2561 64.7897 27.27 64.7876 27.3424 64.7897L27.3422 64.7893ZM26.8948 64.7827C26.9754 64.7783 27.0582 64.7728 27.0801 64.7694L27.1203 64.7639L27.1249 64.637C27.1318 64.4562 27.1594 64.3492 27.2411 64.1781C27.2985 64.0568 27.3239 63.9509 27.3113 63.8715C27.3067 63.8374 27.3045 63.8351 27.2561 63.8152C27.1675 63.7815 27.0753 63.7574 26.9812 63.7434C26.8904 63.7313 26.6234 63.7379 26.5234 63.7567C26.4818 63.7633 26.4061 63.7787 26.3555 63.7908C26.2301 63.8183 26.1634 63.8152 26.068 63.7753C25.9737 63.7355 25.9138 63.6993 25.8575 63.6485C25.8127 63.6087 25.8081 63.6066 25.7966 63.6199C25.7873 63.6299 25.7827 63.6597 25.7793 63.7237C25.7758 63.8219 25.7597 63.8736 25.7149 63.9431C25.7049 63.9574 25.6964 63.9726 25.6895 63.9884C25.6895 63.9918 25.7239 64.0303 25.7665 64.0722C25.9138 64.219 25.9863 64.2565 26.1024 64.2487C26.1404 64.2453 26.1669 64.2465 26.1669 64.2508C26.1669 64.2597 26.0921 64.3158 26.0611 64.3312C26.0461 64.3389 26.0428 64.3467 26.045 64.3632L26.0633 64.4791C26.0737 64.5453 26.0817 64.576 26.0921 64.5849C26.1197 64.607 26.2623 64.6777 26.352 64.7129C26.4692 64.7582 26.5337 64.7747 26.6234 64.7823C26.7338 64.7912 26.736 64.7912 26.8948 64.7823V64.7827ZM25.9436 64.6614C25.9459 64.658 25.9379 64.594 25.9229 64.5201C25.9046 64.4198 25.8942 64.3833 25.8827 64.3734C25.8747 64.3668 25.8321 64.338 25.7895 64.3084C25.7337 64.2695 25.6806 64.2272 25.6307 64.1815L25.5514 64.1066L25.5088 64.1275L25.464 64.1506C25.4679 64.1678 25.4741 64.1844 25.4823 64.2002C25.4949 64.2266 25.5203 64.2916 25.5386 64.3446C25.587 64.4824 25.625 64.5487 25.7204 64.6688L25.7559 64.7141L25.8237 64.7241C25.8617 64.7296 25.8997 64.7374 25.9101 64.7406C25.9262 64.7472 25.9284 64.744 25.933 64.7086C25.9353 64.6932 25.9388 64.6766 25.9434 64.6612L25.9436 64.6614ZM27.401 63.2893C27.4597 63.2838 27.4701 63.276 27.4447 63.2508C27.4286 63.2353 27.3917 63.2343 27.3619 63.2474C27.3422 63.2563 27.3378 63.254 27.3067 63.222C27.2744 63.1879 27.2722 63.1866 27.2318 63.1911C27.1949 63.1955 27.1892 63.1945 27.1845 63.1801C27.1703 63.1563 27.1524 63.1348 27.1315 63.1161C27.1054 63.0877 27.0727 63.0654 27.0361 63.0511C26.9648 63.0246 26.9246 63.028 26.8566 63.0644C26.6598 63.1669 26.668 63.1659 26.4781 63.1195C26.301 63.0765 26.1687 63.0325 26.1261 63.0047C26.0905 62.9816 26.0145 62.9562 25.9512 62.9484C25.9039 62.9418 25.8741 62.9518 25.8293 62.9869L25.8052 63.0058L25.827 63.0422C25.8569 63.093 25.8535 63.0962 25.8087 63.0587C25.7604 63.0202 25.7029 62.9937 25.6661 62.9924C25.6396 62.9924 25.5614 63.0255 25.5521 63.0399C25.5486 63.0443 25.5729 63.0498 25.6051 63.0519C25.6384 63.0553 25.6844 63.0663 25.7155 63.0784C25.7961 63.1114 25.8374 63.1225 25.911 63.1292C25.9916 63.1369 26.1375 63.1282 26.1548 63.1148C26.164 63.1072 26.1892 63.1059 26.2422 63.1104C26.3124 63.1148 26.3412 63.1214 26.5079 63.1644C26.6046 63.1898 26.6724 63.1875 26.7875 63.1578C26.8405 63.1434 26.9072 63.1292 26.9348 63.1258C26.982 63.1214 26.9911 63.1237 27.0649 63.1557C27.1821 63.2065 27.2444 63.2385 27.2788 63.2682C27.3133 63.2967 27.3179 63.2967 27.4007 63.2902L27.401 63.2893ZM26.7453 63.0964L26.8155 63.061L26.8133 62.9926C26.8118 62.9453 26.8099 62.8987 26.8076 62.8527L26.8018 62.7821L26.7316 62.834C26.6901 62.8649 26.6499 62.888 26.6327 62.8914C26.5821 62.9003 26.3325 62.8914 26.3094 62.8793C26.2784 62.8575 26.2495 62.8331 26.223 62.8065L26.1585 62.7436L26.1574 62.7811C26.1574 62.801 26.1552 62.8351 26.1506 62.8561C26.1448 62.8959 26.1448 62.8969 26.1897 62.9509C26.2137 62.9808 26.2334 63.0073 26.2334 63.0104C26.2334 63.0314 26.5658 63.1307 26.6406 63.1318C26.6647 63.1318 26.6947 63.1218 26.7453 63.0964ZM26.6119 62.8459C26.6947 62.8304 26.7349 62.773 26.7661 62.6276C26.7983 62.4708 26.8144 62.225 26.7994 62.1201C26.7855 62.0253 26.6751 61.9833 26.4646 61.9899C26.3334 61.9944 26.2793 62.0064 26.2345 62.0429C26.2069 62.0649 26.2069 62.0672 26.1943 62.1718C26.1713 62.3726 26.2058 62.6583 26.2656 62.7652C26.2943 62.8171 26.3197 62.8357 26.3725 62.8446C26.4324 62.8546 26.56 62.8546 26.6117 62.8457L26.6119 62.8459Z" fill="black" opacity="0"/>
<path classname="element8" d="M48.8504 38.4947C48.8359 38.4382 48.8905 38.3878 48.9487 38.4039L50.6467 38.8727C50.6619 38.8727 50.6769 38.8768 50.6897 38.8846L54.0385 39.8091C54.0523 39.8094 54.066 39.8132 54.0779 39.82L55.776 40.2888C55.8343 40.3049 55.8526 40.3756 55.8088 40.4159L50.6846 45.1425C50.6409 45.1829 50.568 45.1627 50.5535 45.1062L49.7035 41.8065C49.7024 41.8031 49.7015 41.7996 49.7008 41.7961L48.8504 38.4947ZM50.3049 43.5107L50.6738 44.9428L51.7847 43.9181L50.3049 43.5107ZM51.4492 42.3782L50.3736 43.3723L51.8064 43.7668L51.4492 42.3782ZM51.6088 42.3676L51.9649 43.7518L53.0375 42.7624L51.6088 42.3676ZM49.8879 41.8921L50.2456 43.2807L51.3199 42.2878L49.8879 41.8921ZM52.7175 41.2045L51.6247 42.2146L53.081 42.617L52.7175 41.2045ZM52.8706 41.1686L53.2341 42.5811L54.3299 41.5703L52.8706 41.1686ZM51.0267 40.7358L49.9315 41.7468L51.3905 42.1499L51.0267 40.7358ZM51.1792 40.6977L51.5365 42.0862L52.612 41.0921L51.1792 40.6977ZM49.4588 40.2261L49.8224 41.6377L50.9167 40.6275L49.4588 40.2261ZM53.9934 40.0301L52.9178 41.0243L54.3506 41.4187L53.9934 40.0301ZM54.1471 39.9964L54.5094 41.4047L55.6011 40.3978L54.1471 39.9964ZM52.2955 39.5645L51.2248 40.5529L52.6509 40.9455L52.2955 39.5645ZM52.4483 39.5274L52.8061 40.9176L53.882 39.9232L52.4483 39.5274ZM50.6035 39.0937L49.5279 40.0879L50.9607 40.4823L50.6035 39.0937ZM50.7573 39.0605L51.1137 40.4456L52.1866 39.4551L50.7573 39.0605ZM49.0361 38.5854L49.3997 39.9965L50.4917 38.9872L49.0361 38.5854Z" fill="black" opacity="0"/>
<path classname="element7" d="M24.3121 39.7563C23.9341 39.7563 23.6546 40.0737 23.6673 40.4176C23.6791 40.7483 23.6635 41.1766 23.551 41.5256C23.4382 41.8757 23.2477 42.0977 22.9362 42.1262V42.4475C23.2477 42.476 23.4382 42.698 23.551 43.0481C23.6635 43.3974 23.6791 43.8254 23.667 44.1561C23.6546 44.5 23.9341 44.8174 24.3124 44.8174H28.1857C28.5637 44.8174 28.8435 44.5 28.8311 44.1561C28.819 43.8254 28.8346 43.3974 28.9468 43.0481C29.0599 42.698 29.2501 42.476 29.5613 42.4475V42.1262C29.2498 42.0977 29.0599 41.8757 28.9468 41.5256C28.8346 41.1766 28.819 40.7483 28.8311 40.4176C28.8435 40.0737 28.5637 39.7563 28.1857 39.7563H24.3121ZM27.4277 42.8716C27.4277 43.3454 27.0594 43.6329 26.4478 43.6329H25.4066C25.3918 43.6329 25.3772 43.6302 25.3635 43.6248C25.3499 43.6195 25.3375 43.6115 25.327 43.6015C25.3166 43.5915 25.3083 43.5797 25.3026 43.5666C25.297 43.5535 25.2941 43.5395 25.2941 43.5253V41.0484C25.2941 41.0343 25.297 41.0203 25.3027 41.0072C25.3084 40.9942 25.3167 40.9823 25.3271 40.9724C25.3376 40.9624 25.35 40.9545 25.3636 40.9491C25.3773 40.9438 25.3919 40.9411 25.4066 40.9411H26.4416C26.9516 40.9411 27.2864 41.2057 27.2864 41.6126C27.2864 41.8978 27.0611 42.1536 26.7744 42.1982V42.2132C27.1648 42.2541 27.4277 42.5136 27.4277 42.8716ZM26.3341 41.2822H25.7405V42.0864H26.2405C26.6271 42.0864 26.84 41.937 26.84 41.6702C26.84 41.4203 26.6569 41.2822 26.3341 41.2822ZM25.7405 42.4052V43.2915H26.3559C26.7585 43.2915 26.9713 43.1365 26.9713 42.8454C26.9713 42.5545 26.7526 42.4052 26.33 42.4052H25.7405Z" fill="black" opacity="0"/>
<path classname="element6" d="M47.75 76.2096C48.0135 76.2096 48.2284 76.4498 48.2284 76.75C48.2284 77.036 48.0135 77.279 47.75 77.279C47.4865 77.279 47.2716 77.036 47.2716 76.75C47.2716 76.4498 47.4865 76.2096 47.75 76.2096ZM46.5656 79.0376C46.7267 79.1463 47.0798 78.9804 47.4865 78.5515C47.3535 78.3828 47.223 78.1998 47.1002 78.0082C46.8941 77.986 46.6892 77.9516 46.4863 77.9052C46.3558 78.5172 46.4044 78.9375 46.5656 79.0376ZM46.7472 77.3962L46.673 77.2504C46.6449 77.3333 46.6167 77.4163 46.5988 77.4963C46.6679 77.5135 46.7447 77.5278 46.824 77.5421L46.7472 77.3962ZM48.4202 77.1789L48.6274 76.75L48.4202 76.3211C48.3435 76.1695 48.2616 76.0351 48.1874 75.9007C48.0493 75.8921 47.9035 75.8921 47.75 75.8921C47.5965 75.8921 47.4507 75.8921 47.3126 75.9007C47.2384 76.0351 47.1565 76.1695 47.0798 76.3211L46.8726 76.75L47.0798 77.1789C47.1565 77.3305 47.2384 77.4649 47.3126 77.5993C47.4507 77.6079 47.5965 77.6079 47.75 77.6079C47.9035 77.6079 48.0493 77.6079 48.1874 77.5993C48.2616 77.4649 48.3435 77.3305 48.4202 77.1789ZM47.75 75.2573C47.7014 75.3202 47.6502 75.386 47.5991 75.4632H47.9009C47.8498 75.386 47.7986 75.3202 47.75 75.2573ZM47.75 78.2427C47.7986 78.1798 47.8498 78.114 47.9009 78.0368H47.5991C47.6502 78.114 47.7014 78.1798 47.75 78.2427ZM48.9319 74.4624C48.7733 74.3537 48.4202 74.5196 48.0135 74.9485C48.1465 75.1172 48.277 75.3002 48.3998 75.4918C48.6095 75.5147 48.8167 75.549 49.0137 75.5948C49.1442 74.9828 49.0956 74.5625 48.9319 74.4624ZM48.7528 76.1038L48.827 76.2496C48.8551 76.1667 48.8833 76.0837 48.9012 76.0037C48.8321 75.9865 48.7553 75.9722 48.676 75.9579L48.7528 76.1038ZM49.1237 74.0878C49.4998 74.328 49.5407 74.9599 49.3821 75.6977C50.0319 75.9122 50.5 76.2667 50.5 76.75C50.5 77.2333 50.0319 77.5878 49.3821 77.8023C49.5407 78.5401 49.4998 79.172 49.1237 79.4122C48.7502 79.6524 48.2412 79.3779 47.75 78.8546C47.2588 79.3779 46.7498 79.6524 46.3737 79.4122C46.0002 79.172 45.9593 78.5401 46.1179 77.8023C45.4681 77.5878 45 77.2333 45 76.75C45 76.2667 45.4681 75.9122 46.1179 75.6977C45.9593 74.9599 46.0002 74.328 46.3737 74.0878C46.7498 73.8476 47.2588 74.1221 47.75 74.6454C48.2412 74.1221 48.7502 73.8476 49.1237 74.0878ZM49.0495 76.75C49.1365 76.9645 49.2133 77.1789 49.2772 77.3962C49.8144 77.2161 50.1163 76.9587 50.1163 76.75C50.1163 76.5413 49.8144 76.2839 49.2772 76.1038C49.2133 76.3211 49.1365 76.5355 49.0495 76.75ZM46.4505 76.75C46.3635 76.5355 46.2867 76.3211 46.2228 76.1038C45.6856 76.2839 45.3837 76.5413 45.3837 76.75C45.3837 76.9587 45.6856 77.2161 46.2228 77.3962C46.2867 77.1789 46.3635 76.9645 46.4505 76.75ZM48.7528 77.3962L48.676 77.5421C48.7553 77.5278 48.8321 77.5135 48.9012 77.4963C48.8833 77.4163 48.8551 77.3333 48.827 77.2504L48.7528 77.3962ZM48.0135 78.5515C48.4202 78.9804 48.7733 79.1463 48.9319 79.0376C49.0956 78.9375 49.1442 78.5172 49.0137 77.9052C48.8167 77.951 48.6095 77.9853 48.3998 78.0082C48.277 78.1998 48.1465 78.3828 48.0135 78.5515ZM46.7472 76.1038L46.824 75.9579C46.7447 75.9722 46.6679 75.9865 46.5988 76.0037C46.6167 76.0837 46.6449 76.1667 46.673 76.2496L46.7472 76.1038ZM47.4865 74.9485C47.0798 74.5196 46.7267 74.3537 46.5656 74.4624C46.4044 74.5625 46.3558 74.9828 46.4863 75.5948C46.6892 75.5484 46.8941 75.514 47.1002 75.4918C47.223 75.3002 47.3535 75.1172 47.4865 74.9485Z" fill="black" opacity="0"/>
<path classname="element5" d="M40.6033 59.1826C38.6219 59.1826 37.0699 59.9888 37.0699 61.018C37.0699 62.0472 38.6219 62.8533 40.6033 62.8533C42.5847 62.8533 44.1368 62.0472 44.1368 61.018C44.1368 59.9888 42.5847 59.1826 40.6033 59.1826ZM40.2364 59.7473H40.6222L40.4997 60.3121H40.8442C41.0627 60.3121 41.2093 60.3414 41.2929 60.4146C41.3745 60.4868 41.3992 60.6054 41.3665 60.7669L41.2134 61.4415H40.8212L40.9623 60.8178C40.9791 60.7317 40.9726 60.6729 40.9425 60.6413C40.9128 60.6099 40.8471 60.5944 40.7488 60.5944H40.4399L40.2535 61.4415H39.8672L40.2364 59.7473ZM38.5421 60.3121H39.3272C39.7014 60.3121 39.9281 60.5526 39.8395 60.9115C39.7365 61.3286 39.4608 61.4415 38.9532 61.4415H38.7106L38.6337 61.865H38.2436L38.5421 60.3121ZM41.6339 60.3121H42.4189C42.7932 60.3121 43.0199 60.5526 42.9313 60.9115C42.8282 61.3286 42.5523 61.4415 42.045 61.4415H41.8023L41.7255 61.865H41.3353L41.6339 60.3121ZM38.8764 60.5944L38.7653 61.1591H39.0171C39.235 61.1591 39.4376 61.1354 39.4714 60.824C39.4841 60.7031 39.4317 60.5944 39.1799 60.5944H38.8764ZM41.9681 60.5944L41.8571 61.1591H42.1089C42.3268 61.1591 42.5293 61.1354 42.5632 60.824C42.5759 60.7031 42.5237 60.5944 42.2717 60.5944H41.9681Z" fill="black" opacity="0"/>
<path classname="element4" fill-rule="evenodd" clip-rule="evenodd" d="M46.4924 50.5991H52.1459V56.0204H46.4924V50.5991ZM50.8143 55.144C50.5521 55.144 50.4039 55.013 50.2902 54.8345L49.8584 55.0751C50.0143 55.3706 50.333 55.596 50.8265 55.596C51.3311 55.596 51.7068 55.3448 51.7068 54.886C51.7068 54.4607 51.452 54.2716 51.0006 54.0857L50.8678 54.0313C50.6397 53.9364 50.541 53.8747 50.541 53.7218C50.541 53.5982 50.64 53.5036 50.7954 53.5036C50.9479 53.5036 51.0461 53.5653 51.1372 53.7218L51.5509 53.4672C51.3759 53.172 51.1332 53.0593 50.7954 53.0593C50.321 53.0593 50.0174 53.3502 50.0174 53.7324C50.0174 54.1469 50.2718 54.3432 50.6553 54.4998L50.7881 54.5544C51.0305 54.6561 51.1749 54.718 51.1749 54.8926C51.1749 55.0385 51.0343 55.144 50.8143 55.144ZM48.7555 55.1406C48.5729 55.1406 48.4968 55.0209 48.4134 54.8786L47.9809 55.1298C48.1063 55.3841 48.3527 55.5951 48.7779 55.5951C49.2487 55.5951 49.5712 55.355 49.5712 54.8275V53.0882H49.04V54.8207C49.04 55.0753 48.9298 55.1406 48.7552 55.1406" fill="black" opacity="0"/>
<path classname="element3" d="M28.1185 50.5991L28.6142 55.4333L30.9453 56.0204L33.2909 55.4336L33.772 50.5991H28.1185ZM32.2958 54.5898L30.9475 54.9161H30.9453L29.5957 54.5898L29.5024 53.7313H30.1645L30.2116 54.1449L30.945 54.3181L31.6799 54.1447L31.7569 53.3179H29.4735L29.4148 52.7742H31.8143L31.869 52.2304H29.351L29.2957 51.6866H32.5955L32.2958 54.5898Z" fill="black" opacity="0"/>
<path classname="element2" d="M37.541 42.9189L38.0366 47.7504L40.3678 48.3403L42.713 47.7507L43.1945 42.9189H37.541ZM41.9536 44.5584H39.4491L39.5031 45.1048H41.9206L41.724 46.8844L40.3904 47.2587L39.0458 46.8643L38.9553 46.0695H39.591L39.6413 46.452L40.3951 46.6729L41.1319 46.4661L41.2252 45.6516H38.928L38.7515 44.0116H42.0217L41.9536 44.5584Z" fill="black" opacity="0"/>
<path classname="element1" d="M40 0V17.75M40 35.5L52 41.5L58 53.5L52.5 65L40 71L26.5 65L21.5 53.5L27 41.5L40 35.5ZM40 35.5V17.75M40 17.75L67 29.5L79 53.5L67 77L40 89L13.5 77L1.5 53.5L13.5 29.5L40 17.75Z" stroke="black" stroke-opacity="0.54" strokeDasharray="250" strokeDashoffset="250" />
</svg>
